<?xml version="1.0" encoding="UTF-8" standalone="no"?>
<!-- Created with Inkscape (http://www.inkscape.org/) -->

<svg
   version="1.1"
   id="svg2"
   width="220"
   height="220"
   viewBox="0 0 220 220.00005"
   sodipodi:docname="Scopus+Orcid_logos.svg"
   inkscape:version="1.2.2 (b0a8486541, 2022-12-01)"
   xmlns:inkscape="http://www.inkscape.org/namespaces/inkscape"
   xmlns:sodipodi="http://sodipodi.sourceforge.net/DTD/sodipodi-0.dtd"
   xmlns="http://www.w3.org/2000/svg"
   xmlns:svg="http://www.w3.org/2000/svg"
   xmlns:rdf="http://www.w3.org/1999/02/22-rdf-syntax-ns#"
   xmlns:cc="http://creativecommons.org/ns#"
   xmlns:dc="http://purl.org/dc/elements/1.1/">
  <metadata
     id="metadata8">
    <rdf:RDF>
      <cc:Work
         rdf:about="">
        <dc:format>image/svg+xml</dc:format>
        <dc:type
           rdf:resource="http://purl.org/dc/dcmitype/StillImage" />
      </cc:Work>
    </rdf:RDF>
  </metadata>
  <defs
     id="defs6" />
  <sodipodi:namedview
     pagecolor="#ffffff"
     bordercolor="#666666"
     borderopacity="1"
     objecttolerance="10"
     gridtolerance="10"
     guidetolerance="10"
     inkscape:pageopacity="0"
     inkscape:pageshadow="2"
     inkscape:window-width="1920"
     inkscape:window-height="1007"
     id="namedview4"
     showgrid="false"
     fit-margin-top="10"
     fit-margin-left="10"
     fit-margin-right="10"
     fit-margin-bottom="10"
     inkscape:zoom="3.0974253"
     inkscape:cx="48.104469"
     inkscape:cy="111.70568"
     inkscape:window-x="0"
     inkscape:window-y="0"
     inkscape:window-maximized="1"
     inkscape:current-layer="svg2"
     inkscape:showpageshadow="2"
     inkscape:pagecheckerboard="0"
     inkscape:deskcolor="#d1d1d1" />
  <path
     style="display:none;fill:#ff8200;fill-opacity:1;stroke-width:0.380789"
     d="m 106.08577,148.84462 c -0.1232,-0.32121 -0.24222,-11.68021 -0.26422,-25.24232 l -0.0418,-24.658348 h 2.55622 c 2.81964,0 3.0093,0.143 3.39701,2.570258 0.1254,0.78541 0.40679,1.42803 0.62546,1.42803 0.21781,0 1.28173,-0.7744 2.36269,-1.72085 2.74081,-2.399718 5.17494,-3.236528 9.30978,-3.200408 3.7304,0.0352 4.99427,0.39381 7.44594,2.127848 3.50309,2.47784 5.25925,7.25499 5.29636,14.40737 0.0484,9.40617 -3.32991,15.8745 -9.89762,18.94791 -2.1107,0.98778 -3.15548,1.22649 -5.9503,1.36004 -2.09089,0.099 -4.20937,-0.0352 -5.52798,-0.34982 -1.1759,-0.28116 -2.30928,-0.51811 -2.51867,-0.52471 -0.23563,-0.004 -0.45364,2.89318 -0.57157,7.60274 l -0.18921,7.61579 -2.90456,0.11002 c -2.32912,0.088 -2.94891,-0.004 -3.12857,-0.47369 z m 16.84376,-19.80383 c 2.51835,-0.88857 4.12235,-2.36718 5.41395,-4.99086 1.57235,-3.19401 2.14809,-7.402 1.59039,-11.62573 -0.84018,-6.36396 -3.62909,-9.4039 -8.20973,-8.9487 -1.20957,0.121 -2.67871,0.46663 -3.26502,0.76979 -1.4157,0.73216 -5.70368,5.34292 -5.96684,6.41624 -0.11441,0.46662 -0.15841,4.53097 -0.10121,9.03213 l 0.10781,8.18382 2.09441,0.84813 c 2.47919,1.00406 6.00512,1.13739 8.33551,0.31505 z M 5.2490796,134.34313 C 1.1448874,133.42663 -0.02673457,132.81237 -8.8264131e-5,131.59128 0.03533273,130.08582 0.57847043,126.96516 0.85773973,126.68575 c 0.1315597,-0.13201 1.14343377,0.1518 2.24932187,0.63071 4.317732,1.8665 9.2073284,2.43499 12.6714954,1.47339 2.283015,-0.63393 4.6227,-3.15033 4.948399,-5.3221 0.500977,-3.34292 -1.51958,-5.97244 -7.139629,-9.28971 C 3.1366096,108.00955 0.36984583,104.81689 0.36167483,98.916582 c -0.00497,-3.87371 0.84420537,-6.01716 3.39796477,-8.57364 3.296762,-3.300257 5.316908,-3.955552 12.2106034,-3.960832 4.692756,-0.0043 5.935733,0.125404 8.282112,0.863505 1.518403,0.477182 2.780389,1.076902 2.804484,1.332767 0.09592,1.018165 -0.130903,5.43273 -0.292565,5.69744 -0.09482,0.1562 -0.805951,0.005 -1.580089,-0.33111 -4.991155,-2.175597 -10.45724,-2.760275 -13.694956,-1.46478 -3.0728604,1.22938 -4.7863794,4.56745 -3.8970494,7.591578 0.62841,2.13709 3.9250004,5.23369 8.4033304,7.89363 8.942681,5.31167 11.781813,8.61917 11.86827,13.82633 0.0605,3.63399 -0.962046,6.0813 -3.672614,8.79134 -3.276998,3.27639 -5.406282,4.045 -11.647815,4.20482 -3.2321524,0.0836 -5.5732034,-0.0594 -7.2940674,-0.4442 z m 39.2307034,0.0132 c -5.208422,-1.66211 -9.042111,-6.47837 -10.257258,-12.8858 -0.541838,-2.85648 -0.423997,-8.5804 0.228015,-11.08303 1.315342,-5.04997 4.586043,-9.18027 8.853566,-11.180458 1.848229,-0.86613 2.792996,-1.03993 6.249818,-1.14883 4.830499,-0.15181 7.621602,0.50511 9.629491,2.268068 1.434894,1.25994 2.245461,3.28775 2.039345,5.102 -0.127604,1.12201 -0.158405,1.13675 -2.697188,1.24807 l -2.568202,0.1122 -0.633756,-1.32881 c -0.856157,-1.79543 -2.124906,-2.23979 -5.933243,-2.07747 -3.586213,0.1518 -4.620034,0.70643 -6.489833,3.47474 -1.730877,2.56284 -2.276675,5.11878 -2.123427,9.94422 0.123864,3.89369 0.239808,4.46082 1.38966,6.79689 2.520474,5.11983 7.03564,7.04392 12.670074,5.3992 1.137518,-0.33221 2.813549,-1.03466 3.724492,-1.56135 0.910894,-0.52709 1.795362,-0.812 1.965378,-0.63379 0.169405,0.1782 0.367191,1.34155 0.438254,2.58534 0.125404,2.20363 0.0946,2.2842 -1.170186,3.14499 -2.148309,1.46103 -4.867463,2.1162 -9.362907,2.25595 -2.960048,0.0924 -4.705789,-0.0352 -5.951662,-0.43209 z m 31.382895,0.022 c -5.131392,-1.60381 -9.076164,-5.96452 -10.611091,-11.73023 -0.744045,-2.79524 -0.702684,-9.87999 0.0726,-12.49457 1.529228,-5.15397 4.134176,-8.40658 8.435196,-10.532228 l 2.906454,-1.43659 h 4.969951 c 4.594878,0 5.134344,0.077 7.147327,1.02057 4.000917,1.875288 7.057547,5.497588 8.518157,10.094658 0.91191,2.87041 1.11629,9.3299 0.39205,12.40181 -1.54506,6.55497 -5.757494,11.09095 -11.792164,12.6977 -2.454859,0.65365 -7.916521,0.6422 -10.038976,-0.022 z m 10.362707,-5.76529 c 3.073588,-1.58619 5.296833,-6.84058 5.221634,-12.34084 -0.066,-4.74206 -1.157205,-7.96664 -3.488557,-10.298 -2.046006,-2.04599 -3.621942,-2.64339 -6.981095,-2.64661 -4.948522,-0.005 -7.672358,2.59534 -9.278341,8.85708 -0.720726,2.81017 -0.530644,7.363 0.440014,10.52203 0.744265,2.42303 3.769808,5.71256 5.899435,6.41422 2.073072,0.68311 6.398997,0.41493 8.186901,-0.50752 z m 64.210165,5.66884 c -2.27507,-0.80386 -4.36948,-3.00058 -5.23757,-5.49313 -0.64548,-1.85307 -0.71214,-3.34886 -0.71214,-15.94364 V 98.946322 l 2.90274,-0.11001 c 2.74687,-0.1056 2.91528,-0.0638 3.13627,0.76165 0.1276,0.479608 0.23695,6.183888 0.24113,12.676308 0.004,7.09598 0.1672,12.38205 0.40987,13.25266 0.22154,0.79664 0.87693,1.97957 1.45707,2.62885 0.8811,0.98604 1.40185,1.20934 3.15926,1.35521 3.46303,0.28732 6.00886,-0.67344 8.09676,-3.05507 3.29337,-3.75674 3.25431,-3.56005 3.25431,-16.3961 V 98.756482 h 2.83342 c 1.5585,0 2.91714,0.1342 3.01942,0.30075 0.1034,0.165 0.22506,8.090578 0.27236,17.611378 l 0.0858,17.31049 -2.18593,0.11441 c -2.59048,0.1364 -3.18502,-0.24817 -3.508,-2.26735 -0.32517,-2.03458 -0.78056,-2.1624 -2.08143,-0.58455 -0.61204,0.74252 -2.16569,1.87617 -3.4528,2.51929 -2.16701,1.08283 -2.62429,1.1671 -6.18232,1.13916 -2.42119,-0.0176 -4.45837,-0.24818 -5.50819,-0.61867 z m 36.50795,0.1078 c -2.51031,-0.69407 -4.51359,-1.72789 -4.73955,-2.44604 -0.22045,-0.69961 0.30624,-4.51005 0.67365,-4.87746 0.1276,-0.1276 1.5125,0.39821 3.07543,1.17017 4.75116,2.34756 10.03414,2.27949 12.4743,-0.1606 0.88419,-0.88421 1.08219,-1.41196 1.08219,-2.88394 0,-1.59237 -0.1694,-1.96264 -1.45333,-3.18429 -0.79926,-0.76034 -3.14321,-2.20478 -5.20861,-3.20968 -5.01372,-2.43957 -7.80641,-4.39001 -9.15097,-6.39129 -0.93258,-1.38796 -1.13344,-2.11572 -1.24565,-4.51083 -0.1144,-2.44212 -9.9e-4,-3.10424 0.78035,-4.56947 1.16116,-2.17647 3.55355,-4.010618 6.25615,-4.796318 3.20143,-0.93061 9.84412,-0.60566 12.87783,0.63007 l 2.28473,0.930618 0.099,2.28413 c 0.1474,3.42957 -0.1298,3.62347 -3.06848,2.13247 -2.85466,-1.44893 -7.4642,-2.01015 -9.90184,-1.20583 -1.69731,0.56012 -3.31245,2.39867 -3.30908,3.76664 0.004,2.34913 1.75957,3.83687 8.1986,6.95517 7.0011,3.39049 9.76913,6.92741 9.1977,11.7522 -0.45056,3.80379 -3.00024,6.89242 -6.89165,8.34842 -1.73712,0.6499 -2.95454,0.80084 -6.23762,0.77355 -2.24351,-0.0176 -4.85018,-0.24729 -5.79271,-0.50756 z m 26.377,-37.339808 c -2.31465,-1.00628 -3.47324,-4.39927 -2.25305,-6.598202 0.77155,-1.390409 2.54581,-2.351659 4.34548,-2.354431 1.30681,-0.0022 1.89047,0.241568 2.98861,1.248064 2.56868,2.353947 1.94745,6.413389 -1.18163,7.720719 -1.6115,0.67343 -2.31991,0.67035 -3.89948,-0.0176 z m 3.10257,-1.28854 c 0.1122,-0.18041 -0.14961,-0.65033 -0.58322,-1.04193 -0.76891,-0.69586 -0.79905,-0.69586 -1.31165,0.005 -0.28843,0.39447 -0.43407,0.8635 -0.32385,1.04193 0.26247,0.42395 1.95559,0.41999 2.21862,-0.005 z m -3.21794,-3.19235 -0.0114,-2.379909 -0.74888,0.898927 c -0.84568,1.015086 -0.90772,1.489402 -0.37775,2.884082 0.64966,1.70875 1.15236,1.08944 1.13916,-1.40317 z m 5.34368,0.1078 c 0,-0.867023 -0.25873,-1.651985 -0.66704,-2.021148 -1.00585,-0.910363 -2.55218,-1.402505 -3.17251,-1.009805 -0.39799,0.251687 -0.27721,0.34277 0.46134,0.346951 1.41989,0.0053 1.99387,0.861745 1.68543,2.505682 -0.1606,0.85844 -0.088,1.56905 0.19801,1.91269 0.70444,0.84876 1.49535,-0.0682 1.49535,-1.73471 z m -3.04627,-0.986922 c 0,-0.326931 -0.17381,-0.486203 -0.38721,-0.354212 -0.21341,0.132005 -0.28843,0.398653 -0.16721,0.593566 0.32627,0.528218 0.55484,0.429898 0.55484,-0.238707 z"
     id="SCOPUS"
     inkscape:connector-curvature="0" />
  <g
     fill="none"
     fill-rule="nonzero"
     id="ORCID"
     transform="matrix(0.99547036,0,0,0.99547036,-5.3206416e-4,70.651989)">
    <path
       fill="#a6a8ab"
       d="M 26.922,15 C 43.418,15 54,26.975 54,41 54,54.708 43.885,66.999 26.922,66.999 10.427,67.156 0,54.866 0,41.157 0,26.975 10.738,15 26.922,15 Z m 0,45.538 c 11.205,0 19.608,-8.194 19.608,-19.381 0,-11.188 -8.248,-19.381 -19.608,-19.381 -11.204,0 -19.452,8.193 -19.452,19.38 0,11.03 8.248,19.382 19.452,19.382 z M 75.687,16 c 10.18,0 16.602,5.435 16.602,13.975 0,5.745 -2.976,10.093 -8.458,12.267 4.542,2.95 7.362,7.609 11.277,13.82 2.193,3.416 3.446,5.124 6.892,9.938 H 93.386 L 86.65,55.752 C 79.916,45.503 76.94,44.26 73.18,44.26 H 70.204 V 66 H 63 V 16 Z m -5.482,21.74 h 4.699 c 7.83,0 10.024,-4.038 9.867,-8.075 0,-4.659 -2.82,-7.61 -9.867,-7.61 h -4.7 V 37.74 Z m 76.331,-10.643 c -6.185,-3.614 -11.443,-5.342 -17.165,-5.342 -11.443,0 -19.948,8.17 -19.948,19.324 0,11.31 8.196,19.166 20.103,19.166 5.567,0 11.752,-2.043 17.474,-5.656 v 8.012 C 142.052,65.271 136.794,67 128.907,67 110.196,67 102,52.39 102,41.707 102,26.31 113.443,15 129.371,15 c 5.103,0 10.361,1.257 17.165,4.085 z"
       id="path204" />
    <path
       fill="#a5cd39"
       d="m 175,16 h 19.36 C 212.791,16 221,29.199 221,41 221,53.888 210.933,66 194.515,66 H 175 Z m 7.125,43.478 h 11.46 c 16.263,0 19.98,-12.422 19.98,-18.633 0,-10.093 -6.35,-18.634 -20.289,-18.634 H 182.28 v 37.267 h -0.154 z"
       id="path206" />
    <g
       fill="#a5cd39"
       id="g210">
      <path
         d="m 164.114,66 h -7.228 V 15.4 h 7.228 v 28.129 z m 1.1,-61.286 c 0,2.672 -2.2,4.715 -4.714,4.715 -2.671,0 -4.714,-2.2 -4.714,-4.715 0,-2.514 2.2,-4.714 4.714,-4.714 2.671,0 4.714,2.2 4.714,4.714 z"
         id="path208" />
    </g>
  </g>
</svg>
