<?xml version="1.0" encoding="UTF-8" standalone="no"?>
<!-- Created with Inkscape (http://www.inkscape.org/) -->

<svg
   version="1.1"
   id="svg2"
   width="218.563"
   height="218.563"
   viewBox="0 0 218.563 218.56305"
   sodipodi:docname="Scopus_logo_adapted.svg"
   inkscape:version="1.2.2 (b0a8486541, 2022-12-01)"
   xmlns:inkscape="http://www.inkscape.org/namespaces/inkscape"
   xmlns:sodipodi="http://sodipodi.sourceforge.net/DTD/sodipodi-0.dtd"
   xmlns="http://www.w3.org/2000/svg"
   xmlns:svg="http://www.w3.org/2000/svg"
   xmlns:rdf="http://www.w3.org/1999/02/22-rdf-syntax-ns#"
   xmlns:cc="http://creativecommons.org/ns#"
   xmlns:dc="http://purl.org/dc/elements/1.1/">
  <metadata
     id="metadata8">
    <rdf:RDF>
      <cc:Work
         rdf:about="">
        <dc:format>image/svg+xml</dc:format>
        <dc:type
           rdf:resource="http://purl.org/dc/dcmitype/StillImage" />
      </cc:Work>
    </rdf:RDF>
  </metadata>
  <defs
     id="defs6" />
  <sodipodi:namedview
     pagecolor="#ffffff"
     bordercolor="#666666"
     borderopacity="1"
     objecttolerance="10"
     gridtolerance="10"
     guidetolerance="10"
     inkscape:pageopacity="0"
     inkscape:pageshadow="2"
     inkscape:window-width="1920"
     inkscape:window-height="1007"
     id="namedview4"
     showgrid="false"
     fit-margin-top="10"
     fit-margin-left="10"
     fit-margin-right="10"
     fit-margin-bottom="10"
     inkscape:zoom="3.0974253"
     inkscape:cx="56.498538"
     inkscape:cy="112.67423"
     inkscape:window-x="0"
     inkscape:window-y="0"
     inkscape:window-maximized="1"
     inkscape:current-layer="svg2"
     inkscape:showpageshadow="2"
     inkscape:pagecheckerboard="0"
     inkscape:deskcolor="#d1d1d1" />
  <path
     style="fill:#ff8200;fill-opacity:1;stroke-width:0.378297"
     d="m 105.39268,140.0585 c -0.12243,-0.31904 -0.24038,-11.60381 -0.26212,-25.07726 l -0.0395,-24.497181 h 2.53898 c 2.80123,0 2.98967,0.14259 3.37484,2.55351 0.12466,0.78024 0.40425,1.41861 0.62133,1.41861 0.21709,0 1.27333,-0.7693 2.34722,-1.70955 2.72292,-2.38409 5.14112,-3.2154 9.24891,-3.17953 3.70601,0.0324 4.96164,0.39119 7.39729,2.11399 3.48015,2.46162 5.22483,7.20754 5.26171,14.313151 0.0484,9.34477 -3.30817,15.77077 -9.83291,18.82407 -2.09686,0.98124 -3.13483,1.21851 -5.91137,1.35125 -2.07726,0.0993 -4.18184,-0.0339 -5.49185,-0.34769 -1.16816,-0.27978 -2.29417,-0.5145 -2.50223,-0.52159 -0.23394,-0.008 -0.45047,2.87419 -0.56744,7.55305 l -0.18915,7.56594 -2.88555,0.10965 c -2.31392,0.0879 -2.92963,-0.005 -3.10814,-0.47043 z m 16.73361,-19.67432 c 2.50185,-0.8827 4.09539,-2.3517 5.37857,-4.9582 1.56214,-3.17319 2.13406,-7.35366 1.58007,-11.54972 -0.83472,-6.322421 -3.60535,-9.342451 -8.15607,-8.890211 -1.20158,0.11941 -2.66122,0.46354 -3.24367,0.76473 -1.40655,0.72737 -5.66637,5.308031 -5.92782,6.374301 -0.11361,0.46353 -0.15852,4.50142 -0.0997,8.97309 l 0.107,8.1303 2.08063,0.84263 c 2.463,0.99748 5.96583,1.12992 8.281,0.31308 z M 5.2153078,125.65181 c -4.07736,-0.91051 -5.24130001,-1.5207 -5.214870007,-2.73385 0.032599997,-1.4957 0.574729997,-4.59586 0.852259997,-4.87338 0.13038,-0.13038 1.13597001,0.15153 2.23462001,0.62648 4.28949,1.85429 9.1471002,2.41908 12.5886402,1.46366 2.26806,-0.62965 4.59247,-3.12952 4.91602,-5.28711 0.49803,-3.32111 -1.50967,-5.93343 -7.09293,-9.22895 C 3.1166678,99.490429 0.36796779,96.318619 0.35988779,90.456879 c -0.005,-3.84831 0.83864001,-5.9778 3.37573001,-8.51755 3.27518,-3.27865 5.28215,-3.92966 12.1307402,-3.93488 4.66209,-0.004 5.89692,0.12518 8.22796,0.85787 1.50846,0.47413 2.76223,1.06994 2.78617,1.32404 0.0953,1.0116 -0.1301,5.39724 -0.29087,5.66019 -0.0943,0.15418 -0.80068,0.006 -1.56979,-0.32922 -4.95847,-2.16143 -10.38881,-2.74227 -13.60536,-1.45526 -3.0527802,1.22148 -4.7550902,4.5376 -3.8716102,7.54194 0.62435,2.12313 3.8993302,5.19947 8.3484102,7.84204 8.88419,5.276861 11.70478,8.562781 11.79068,13.735831 0.0599,3.61025 -0.95576,6.0416 -3.64863,8.73394 -3.25553,3.25487 -5.37092,4.0185 -11.57163,4.17719 -3.2110502,0.0822 -5.5367602,-0.0594 -7.2463802,-0.4412 z m 38.9742102,0.009 c -5.17436,-1.65133 -8.98301,-6.43596 -10.19021,-12.80156 -0.5382,-2.83787 -0.42134,-8.52424 0.22626,-11.01056 1.30675,-5.016961 4.55606,-9.120251 8.79569,-11.107361 1.83613,-0.8606 2.7747,-1.03313 6.20892,-1.14135 4.79894,-0.15122 7.57181,0.50189 9.56654,2.25329 1.42553,1.25165 2.23079,3.26624 2.02601,5.06868 -0.12666,1.11471 -0.15835,1.12938 -2.67957,1.23986 l -2.55142,0.11181 -0.62957,-1.32024 c -0.85057,-1.78365 -2.11103,-2.22496 -5.89446,-2.06379 -3.56276,0.15178 -4.58984,0.7017 -6.44738,3.45205 -1.71956,2.546051 -2.26178,5.085301 -2.10954,9.879141 0.12284,3.86831 0.23802,4.43169 1.38056,6.75251 2.50402,5.08636 6.98962,6.99785 12.58723,5.36391 1.13008,-0.32988 2.79515,-1.02792 3.70012,-1.5512 0.90497,-0.52328 1.78363,-0.80665 1.95255,-0.62969 0.16894,0.17695 0.36478,1.33276 0.43524,2.56847 0.12479,2.18919 0.095,2.26922 -1.16254,3.12445 -2.13424,1.45147 -4.83565,2.10235 -9.30171,2.24117 -2.9407,0.0914 -4.67499,-0.0346 -5.91272,-0.4296 z m 31.17768,0.0235 c -5.09787,-1.5932 -9.01683,-5.92548 -10.54172,-11.65351 -0.73927,-2.77694 -0.69813,-9.81542 0.0726,-12.4129 1.51917,-5.120251 4.10713,-8.351601 8.38001,-10.463381 l 2.88747,-1.42706 h 4.93747 c 4.56483,0 5.10076,0.0765 7.10062,1.01386 3.97473,1.86295 7.01138,5.46164 8.4624,10.028661 0.906,2.85161 1.10895,9.26889 0.38963,12.3207 -1.53495,6.51215 -5.71987,11.01846 -11.71508,12.61475 -2.4388,0.64935 -7.86475,0.63786 -9.97334,-0.0211 z m 10.29496,-5.72762 c 3.05346,-1.57569 5.26221,-6.79584 5.18747,-12.26009 -0.0644,-4.71109 -1.14963,-7.914541 -3.46572,-10.230641 -2.03255,-2.03254 -3.59826,-2.62613 -6.93549,-2.62935 -4.91616,-0.005 -7.62218,2.57841 -9.21764,8.799111 -0.71606,2.79186 -0.52691,7.3149 0.43712,10.4533 0.73943,2.40721 3.74515,5.67522 5.86088,6.37234 2.05951,0.6786 6.35713,0.41193 8.13338,-0.50467 z m 63.790332,5.63187 c -2.26023,-0.79873 -4.34093,-2.98095 -5.20334,-5.45721 -0.64117,-1.84098 -0.70755,-3.327 -0.70755,-15.83942 V 90.484059 l 2.88375,-0.10962 c 2.72892,-0.10374 2.8962,-0.0631 3.11578,0.75659 0.12761,0.47642 0.23532,6.14346 0.23931,12.593431 0.004,7.04958 0.16663,12.30109 0.40683,13.16598 0.21973,0.79133 0.87111,1.96659 1.44751,2.61169 0.87525,0.97956 1.39262,1.20149 3.13865,1.34628 3.44036,0.2853 5.96953,-0.66901 8.0438,-3.03513 3.27183,-3.73215 3.23304,-3.53674 3.23304,-16.28889 V 90.294909 h 2.8149 c 1.54821,0 2.89804,0.13452 2.99966,0.29893 0.10155,0.1644 0.2234,8.03771 0.27063,17.496231 l 0.0859,17.19732 -2.17172,0.1144 c -2.57355,0.13557 -3.16417,-0.24618 -3.48501,-2.25255 -0.32321,-2.02137 -0.7756,-2.14838 -2.06787,-0.58062 -0.60801,0.73762 -2.1516,1.86388 -3.43022,2.50282 -2.15278,1.07576 -2.60713,1.15948 -6.14188,1.13182 -2.40537,-0.0188 -4.42924,-0.24618 -5.47218,-0.61473 z m 36.26923,0.10632 c -2.4939,-0.68944 -4.48407,-1.71655 -4.70856,-2.43003 -0.21867,-0.69495 0.3041,-4.48055 0.66915,-4.84558 0.1278,-0.12781 1.50273,0.3953 3.05536,1.16248 4.72011,2.33225 9.96853,2.26469 12.39274,-0.15952 0.87833,-0.87833 1.0751,-1.40273 1.0751,-2.86512 0,-1.58191 -0.16785,-1.94969 -1.44382,-3.16349 -0.79411,-0.75542 -3.12264,-2.19034 -5.17454,-3.18872 -4.98097,-2.42356 -7.75537,-4.36127 -9.09113,-6.34944 -0.92639,-1.37891 -1.12605,-2.1019 -1.23744,-4.481391 -0.11361,-2.42612 -0.001,-3.08389 0.77535,-4.53957 1.15356,-2.16224 3.53028,-3.98436 6.21523,-4.7649 3.18049,-0.9246 9.7797,-0.60174 12.79359,0.6259 l 2.26978,0.92455 0.0978,2.26925 c 0.14688,3.4072 -0.13022,3.59977 -3.0484,2.11857 -2.83603,-1.43949 -7.41544,-1.99715 -9.83714,-1.19792 -1.68616,0.55649 -3.29078,2.38297 -3.28742,3.74198 0.006,2.333761 1.748,3.811771 8.14503,6.909741 6.95523,3.3683 9.70521,6.88206 9.13751,11.67534 -0.44753,3.77888 -2.98063,6.84742 -6.84657,8.29386 -1.72582,0.64571 -2.93522,0.79569 -6.1968,0.76847 -2.22889,-0.0186 -4.81856,-0.24561 -5.75486,-0.50446 z m 26.20452,-37.095701 c -2.29952,-0.99966 -3.45055,-4.37048 -2.23832,-6.555 0.76648,-1.38126 2.52913,-2.33631 4.31706,-2.33907 1.29816,-0.002 1.87816,0.24021 2.96908,1.23997 2.55184,2.33859 1.93466,6.37146 -1.17386,7.67028 -1.60104,0.66895 -2.30472,0.66602 -3.87396,-0.0162 z m 3.08225,-1.28006 c 0.11137,-0.18026 -0.14928,-0.64614 -0.57929,-1.0353 -0.76389,-0.69132 -0.7938,-0.6912 -1.303,0.005 -0.28664,0.392 -0.43144,0.85788 -0.3218,1.03529 0.26046,0.42144 1.94286,0.41749 2.20409,-0.005 z m -3.19686,-3.17152 -0.0125,-2.36435 -0.74401,0.89307 c -0.84019,1.00853 -0.90187,1.47971 -0.37508,2.86527 0.64538,1.69748 1.14485,1.08224 1.13167,-1.39399 z m 5.30874,0.10688 c 0,-0.8613 -0.25739,-1.64116 -0.66272,-2.00798 -0.99931,-0.90436 -2.53548,-1.39331 -3.15183,-1.00318 -0.3955,0.25034 -0.2755,0.34071 0.45813,0.34498 1.41055,0.008 1.98084,0.85603 1.67444,2.48926 -0.15999,0.85284 -0.087,1.55872 0.19646,1.90029 0.69984,0.84324 1.48552,-0.0683 1.48552,-1.72337 z m -3.02637,-0.98039 c 0,-0.32438 -0.17302,-0.48285 -0.38448,-0.35216 -0.21145,0.13069 -0.28651,0.39609 -0.16682,0.58977 0.32429,0.52472 0.5513,0.42688 0.5513,-0.23761 z"
     id="path4487"
     inkscape:connector-curvature="0" />
</svg>
