<?xml version="1.0" standalone="no"?>
<!DOCTYPE svg PUBLIC "-//W3C//DTD SVG 20010904//EN"
 "http://www.w3.org/TR/2001/REC-SVG-20010904/DTD/svg10.dtd">
<svg version="1.0" xmlns="http://www.w3.org/2000/svg"
 width="1080.000000pt" height="1080.000000pt" viewBox="0 0 1080.000000 1080.000000"
 preserveAspectRatio="xMidYMid meet">
<metadata>
Created by potrace 1.14, written by Peter Selinger 2001-2017
</metadata>
<g transform="translate(0.000000,1080.000000) scale(0.100000,-0.100000)"
fill="#000000" stroke="none">
<path d="M5408 10695 c-2 -2 -15 -6 -30 -9 -14 -2 -36 -9 -47 -16 -21 -11 -21
-12 -21 -653 0 -631 0 -643 -20 -660 -11 -9 -27 -17 -35 -17 -7 0 -16 -4 -20
-9 -3 -5 -42 -30 -88 -56 -45 -25 -104 -59 -132 -76 -27 -17 -58 -33 -67 -36
-10 -3 -18 -9 -18 -14 0 -5 -5 -9 -10 -9 -6 0 -29 -12 -52 -26 -23 -14 -48
-27 -57 -28 -8 -2 -17 -8 -19 -14 -2 -7 -10 -12 -18 -12 -8 0 -14 -5 -14 -11
0 -6 -6 -9 -14 -6 -8 3 -17 -1 -20 -10 -4 -9 -9 -13 -12 -10 -3 3 -14 -2 -25
-11 -11 -9 -23 -17 -27 -17 -4 0 -18 -8 -32 -16 -63 -39 -166 -97 -174 -97 -5
0 -12 -4 -15 -9 -8 -12 -150 -93 -162 -93 -5 0 -9 -4 -9 -10 0 -5 -6 -10 -14
-10 -7 0 -19 -7 -26 -15 -7 -8 -16 -13 -20 -10 -13 8 -17 -17 -13 -64 4 -36 2
-43 -11 -38 -9 4 -16 2 -16 -3 0 -6 -9 -10 -21 -10 -11 0 -17 -4 -14 -10 3 -5
2 -10 -3 -10 -5 0 -9 -209 -10 -516 0 -284 -3 -518 -6 -521 -3 -3 -1 -13 4
-23 17 -31 -2 -31 -59 2 -31 17 -69 39 -86 48 -211 120 -684 396 -695 407 -13
12 -15 98 -15 654 0 710 6 649 -70 670 -55 15 -192 7 -233 -15 l-33 -17 1
-117 c1 -64 1 -354 1 -643 l-1 -526 -40 -27 c-22 -14 -40 -24 -40 -20 0 3 -13
-4 -29 -15 -16 -12 -34 -21 -40 -21 -6 0 -11 -4 -11 -8 0 -5 -18 -17 -40 -27
-22 -10 -45 -24 -51 -31 -6 -8 -15 -12 -19 -9 -4 3 -13 -2 -20 -10 -7 -8 -19
-15 -26 -15 -8 0 -14 -5 -14 -11 0 -5 -4 -8 -9 -5 -5 3 -14 -1 -21 -9 -7 -8
-19 -15 -26 -15 -8 0 -14 -5 -14 -11 0 -5 -4 -8 -9 -4 -5 3 -12 1 -15 -4 -6
-9 -115 -75 -126 -76 -3 0 -20 -10 -37 -23 -18 -13 -33 -21 -33 -17 0 3 -6 1
-12 -5 -22 -19 -178 -109 -178 -102 0 3 -7 -3 -15 -14 -8 -10 -15 -15 -15 -10
0 5 -9 1 -20 -9 -11 -10 -20 -14 -20 -9 0 5 -4 4 -8 -2 -4 -6 -38 -28 -77 -49
-139 -75 -157 -92 -149 -147 6 -33 4 -38 -12 -38 -11 0 -29 -7 -41 -15 -21
-15 -21 -16 -21 -597 -1 -321 -1 -611 -2 -645 0 -62 0 -63 -37 -81 -21 -11
-191 -108 -377 -216 -187 -108 -341 -196 -342 -196 -2 0 -28 -16 -59 -35 -30
-20 -63 -38 -73 -42 -9 -3 -27 -15 -39 -26 -13 -11 -23 -17 -23 -13 0 4 -12
-1 -28 -11 -42 -28 -64 -41 -99 -58 -54 -28 -52 -73 8 -185 33 -63 88 -120
115 -120 16 0 24 4 247 134 82 47 153 86 158 86 5 0 9 5 9 11 0 5 4 7 10 4 5
-3 10 -1 10 4 0 6 4 11 9 11 5 0 59 29 120 65 60 36 114 65 120 65 6 0 11 3
11 8 0 4 10 12 23 18 55 27 193 109 199 119 4 5 8 6 8 2 0 -5 12 1 26 12 15
12 33 21 40 21 8 0 14 4 14 10 0 5 3 9 8 8 4 -1 26 10 49 25 24 15 49 27 57
27 8 0 81 -39 163 -86 81 -48 169 -98 194 -113 330 -187 496 -288 491 -299 -2
-7 -7 -10 -10 -8 -3 3 -10 2 -16 -3 -27 -22 -326 -190 -326 -183 0 4 -5 -1
-11 -11 -6 -9 -14 -15 -20 -12 -5 4 -9 2 -9 -4 0 -5 -28 -24 -62 -41 -85 -43
-120 -63 -136 -77 -7 -7 -20 -13 -28 -13 -8 0 -14 -3 -14 -7 0 -5 -23 -19 -50
-32 -28 -14 -50 -29 -50 -35 0 -5 -2 -7 -5 -4 -6 6 -152 -77 -190 -107 -17
-13 -18 -20 -8 -55 8 -33 8 -40 -4 -40 -8 0 -27 -7 -43 -17 l-28 -16 -1 -641
c-1 -731 11 -644 -99 -701 -31 -16 -61 -36 -65 -43 -4 -6 -16 -12 -26 -12 -10
0 -26 -9 -36 -20 -9 -10 -20 -19 -24 -18 -11 3 -61 -25 -61 -34 0 -4 -4 -8
-10 -8 -5 0 -96 -50 -202 -111 -259 -149 -278 -160 -317 -181 -19 -10 -37 -21
-40 -25 -3 -5 -33 -21 -66 -38 -33 -16 -62 -33 -65 -36 -3 -3 -20 -14 -38 -23
-59 -30 -71 -45 -66 -85 9 -73 89 -202 144 -231 17 -9 97 26 159 69 14 10 51
31 81 47 30 16 61 35 68 41 7 7 18 13 23 13 5 0 26 11 47 23 77 49 97 61 100
58 1 -1 14 7 29 19 14 11 30 20 36 20 6 0 18 6 26 14 9 8 39 26 66 40 53 28
74 41 115 67 23 15 85 49 170 95 19 11 37 22 40 25 7 7 140 82 163 91 13 6 72
-23 210 -104 106 -61 262 -151 347 -201 85 -49 171 -98 190 -109 19 -11 112
-65 206 -119 94 -55 175 -99 181 -99 6 0 21 11 35 25 l24 24 37 -26 37 -26 38
20 c20 11 54 30 75 41 67 39 106 62 145 83 20 12 45 28 55 37 9 8 17 12 17 7
0 -4 6 -3 13 3 18 16 449 263 462 265 5 1 14 7 20 13 15 17 125 75 126 66 3
-54 -2 -976 -6 -983 -4 -5 -10 -7 -15 -4 -5 3 -11 1 -14 -4 -6 -8 -86 -57
-146 -89 -14 -7 -47 -26 -75 -43 -27 -16 -62 -35 -77 -42 -16 -6 -28 -14 -28
-18 0 -3 -18 -14 -40 -24 -22 -10 -40 -21 -40 -25 0 -5 -12 -11 -27 -15 -15
-3 -30 -10 -33 -14 -3 -4 -84 -53 -180 -108 -96 -55 -230 -132 -297 -171 -67
-38 -124 -67 -127 -64 -6 6 -9 -28 -6 -66 5 -63 83 -190 133 -216 32 -18 33
-18 85 13 29 17 57 31 62 31 6 0 10 4 10 8 0 4 12 13 28 19 30 13 96 51 154
89 21 13 42 24 48 24 5 0 10 5 10 10 0 6 7 10 15 10 9 0 25 9 37 20 12 10 24
17 29 15 4 -3 13 1 21 8 7 7 72 46 143 87 72 40 147 84 167 97 21 12 44 23 53
23 8 0 15 5 15 11 0 5 15 17 32 25 33 14 43 20 107 61 19 12 38 20 43 17 4 -3
8 -1 8 4 0 4 17 18 39 30 l38 22 339 -196 c187 -108 359 -208 384 -222 25 -14
74 -42 109 -64 34 -21 65 -38 67 -38 2 0 45 -25 95 -55 116 -70 133 -74 165
-44 21 19 28 21 42 11 47 -34 63 -37 96 -18 57 34 146 85 208 120 21 12 74 42
119 68 45 27 85 48 90 48 4 0 14 6 21 13 13 13 108 71 118 72 3 0 23 12 45 26
22 14 47 28 55 32 8 4 33 18 55 31 22 14 51 31 65 39 14 7 86 49 160 92 74 43
140 78 145 78 6 0 89 -47 185 -103 96 -57 195 -114 220 -128 25 -14 184 -106
354 -204 170 -98 322 -186 338 -194 28 -15 29 -14 78 36 69 71 125 201 102
236 -6 9 -224 139 -422 252 -19 10 -78 44 -130 75 -52 30 -114 65 -136 78 -23
13 -128 74 -233 134 l-191 110 2 488 c1 268 4 489 7 491 3 2 202 -111 441
-250 239 -140 450 -261 469 -271 33 -16 35 -16 73 6 l40 23 22 -21 c28 -26 46
-26 88 -2 18 10 150 86 293 168 143 83 285 164 315 182 30 17 62 36 70 41 8 6
26 16 40 22 14 7 44 25 68 41 23 15 42 24 42 20 0 -4 4 -3 8 3 4 6 43 31 87
54 44 24 82 46 85 49 3 3 18 13 34 22 28 16 31 16 60 -2 170 -107 1085 -625
1098 -621 52 13 150 169 152 242 0 21 -2 41 -4 43 -5 3 -682 396 -755 437 -16
9 -86 50 -155 90 -69 40 -142 82 -162 93 l-37 20 1 631 c0 347 0 638 -1 647
-1 10 -18 24 -40 32 -37 15 -38 17 -34 60 5 48 9 44 -107 109 -19 11 -165 96
-325 188 -159 92 -308 178 -330 191 -22 12 -64 36 -93 53 -30 17 -62 36 -73
42 -19 11 -19 12 3 26 13 8 33 18 46 22 12 4 22 12 22 17 0 6 5 7 10 4 6 -3
10 -3 10 2 0 4 21 19 48 33 26 13 65 35 87 49 22 14 43 25 47 26 4 0 16 8 27
17 11 9 22 14 25 11 3 -4 6 -1 6 6 0 7 5 9 10 6 6 -3 10 -3 10 2 0 4 10 13 23
19 47 23 173 97 189 111 9 8 21 12 26 9 6 -3 12 1 16 9 3 8 12 15 21 15 8 0
15 5 15 11 0 5 4 8 9 5 5 -3 14 1 21 9 7 8 17 15 22 15 5 0 29 14 54 30 24 17
44 28 44 24 0 -4 9 1 20 11 19 17 28 13 311 -151 160 -93 310 -180 333 -193
22 -13 111 -64 196 -113 85 -50 175 -102 200 -116 25 -14 54 -31 65 -38 29
-20 48 -17 81 14 38 34 94 115 94 136 0 8 5 18 10 21 6 4 8 10 5 15 -3 5 -1
11 4 14 5 4 8 21 7 39 -2 31 -13 38 -362 240 -197 115 -381 221 -409 237 -27
15 -115 66 -195 112 l-145 84 -1 643 c0 625 -1 644 -20 658 -10 7 -29 16 -40
19 -18 5 -21 12 -20 52 l1 46 -135 79 c-74 44 -153 90 -175 102 -133 73 -791
458 -795 465 -3 5 -5 293 -5 640 1 424 -3 636 -10 645 -21 27 -79 41 -160 39
-80 -1 -106 -5 -115 -14 -3 -3 -14 -10 -25 -16 -20 -11 -20 -22 -21 -654 -1
-617 -2 -643 -20 -653 -11 -6 -22 -15 -26 -21 -4 -6 -8 -7 -8 -3 0 5 -12 -1
-26 -12 -15 -11 -30 -18 -35 -15 -5 3 -9 0 -9 -5 0 -6 -7 -11 -15 -11 -8 0
-15 -4 -15 -8 0 -5 -19 -17 -41 -28 -23 -10 -47 -23 -53 -29 -7 -5 -27 -18
-46 -28 -68 -37 -95 -52 -100 -58 -3 -3 -20 -12 -37 -20 -18 -8 -33 -18 -33
-22 0 -5 -4 -5 -10 -2 -5 3 -10 1 -10 -5 0 -6 -4 -8 -10 -5 -5 3 -10 1 -10 -5
0 -6 -8 -14 -17 -17 -10 -4 -87 -46 -171 -95 -84 -48 -155 -88 -158 -88 -2 0
-4 245 -4 544 0 583 2 558 -52 571 -25 6 -26 10 -21 50 4 38 2 44 -24 62 -15
11 -264 156 -553 323 -289 167 -527 307 -530 311 -3 5 -6 295 -5 644 0 708 6
654 -70 674 -37 10 -159 14 -167 6z m-102 -2207 c-1 -387 -4 -492 -14 -496 -7
-2 -19 -10 -27 -19 -8 -8 -15 -11 -15 -7 0 4 -9 -1 -20 -11 -11 -10 -20 -14
-20 -9 0 5 -4 4 -8 -2 -6 -10 -51 -36 -152 -90 -19 -11 -40 -25 -48 -31 -7 -7
-24 -16 -37 -19 -13 -3 -26 -12 -28 -19 -3 -7 -18 -16 -34 -20 -15 -3 -30 -10
-33 -14 -3 -4 -70 -44 -150 -89 -80 -46 -152 -87 -160 -93 -8 -5 -31 -17 -50
-27 -19 -9 -38 -21 -41 -26 -4 -4 -9 -4 -11 0 -3 5 -4 227 -4 492 1 465 2 485
21 498 10 8 25 14 32 14 7 0 13 5 13 10 0 6 6 10 14 10 7 0 19 7 26 15 7 8 16
12 21 9 5 -3 9 0 9 7 0 7 3 10 6 6 3 -3 14 2 25 11 11 9 22 15 26 14 3 -2 9 0
12 5 8 11 151 93 162 93 5 0 9 5 9 11 0 5 4 8 9 5 5 -3 14 1 21 9 7 8 19 15
26 15 8 0 14 5 14 11 0 5 4 8 9 5 5 -4 11 -3 13 2 1 4 57 39 123 76 66 38 149
86 185 107 36 21 68 38 71 38 4 1 6 -220 5 -491z m769 248 l420 -244 0 -491
c1 -270 -2 -491 -5 -491 -3 0 -194 110 -425 243 l-420 243 -2 492 c-1 271 1
492 5 492 4 -1 196 -110 427 -244z m-2752 -1156 c2 0 56 -30 118 -66 63 -37
200 -116 304 -176 105 -60 193 -113 198 -117 4 -4 -32 -29 -80 -57 -48 -27
-95 -53 -105 -59 -130 -76 -182 -105 -189 -105 -5 0 -9 -5 -9 -12 0 -6 -3 -8
-6 -5 -4 3 -18 -3 -32 -13 -13 -11 -31 -20 -38 -20 -7 0 -17 -6 -21 -12 -4 -7
-38 -29 -75 -48 -38 -19 -68 -38 -68 -42 0 -4 -9 -8 -20 -8 -11 0 -20 -5 -20
-11 0 -5 -4 -7 -10 -4 -6 4 -10 149 -10 401 l0 395 29 -20 c16 -12 31 -21 34
-21z m-396 -461 l0 -490 -71 -40 c-142 -80 -162 -92 -231 -133 -38 -22 -73
-40 -77 -39 -5 2 -8 -1 -8 -6 0 -5 -13 -14 -30 -21 -16 -7 -39 -21 -51 -31
-12 -10 -26 -16 -30 -13 -5 3 -9 1 -9 -5 0 -5 -16 -15 -35 -22 -19 -7 -35 -16
-35 -19 0 -3 -26 -19 -57 -35 -32 -17 -63 -35 -69 -41 -7 -6 -27 -17 -46 -24
-18 -8 -37 -20 -43 -26 -5 -7 -21 -16 -35 -19 l-25 -6 1 483 c1 266 2 486 3
490 1 7 96 64 96 57 0 -2 14 6 30 17 25 18 183 111 329 194 68 38 101 57 154
89 29 17 57 31 62 31 6 0 10 5 10 11 0 5 5 7 10 4 6 -3 10 -1 10 6 0 7 3 10 6
6 3 -3 13 1 22 9 10 8 21 14 26 13 5 0 12 4 15 9 6 9 61 41 72 42 4 0 6 -221
6 -491z m2374 469 c3 -112 0 -750 -4 -755 -3 -3 -21 4 -39 15 -18 11 -49 29
-68 40 -19 10 -145 84 -280 162 -135 79 -255 148 -267 154 -13 6 -23 15 -23
19 0 5 4 6 9 3 5 -4 11 -3 13 2 4 9 147 92 159 92 5 0 9 5 9 10 0 6 5 10 11
10 6 0 36 15 67 34 165 98 289 168 301 170 8 2 17 8 19 14 2 7 9 12 15 12 7 0
23 9 37 20 32 25 40 25 41 -2z m923 -313 c81 -46 114 -75 88 -75 -10 0 -418
-234 -439 -252 -7 -6 -13 -7 -13 -2 0 4 -11 -3 -25 -16 -14 -13 -25 -19 -25
-14 0 5 -4 4 -8 -1 -4 -6 -28 -22 -54 -35 -27 -14 -48 -29 -48 -33 0 -5 -4 -6
-9 -2 -5 3 -12 1 -16 -5 -3 -5 -12 -10 -18 -10 -10 0 -12 86 -11 383 1 210 2
385 3 389 1 5 118 -61 575 -327z m1444 322 c-1 -2 3 -11 11 -20 8 -11 9 -17 2
-17 -7 0 -8 -8 -2 -22 5 -13 5 -33 0 -45 -5 -14 -5 -23 2 -23 6 0 6 -6 1 -17
-5 -10 -6 -27 -2 -38 4 -11 4 -30 -1 -42 -5 -15 -5 -23 2 -23 6 0 7 -6 0 -17
-5 -10 -5 -26 -1 -39 5 -12 6 -25 3 -28 -3 -3 -6 -105 -6 -226 l0 -220 -31 19
c-17 10 -114 67 -216 125 -102 58 -192 110 -200 116 -21 13 -118 69 -155 89
-60 33 -77 48 -63 57 37 24 55 35 81 46 15 7 27 16 27 21 0 4 5 5 10 2 6 -3
10 -1 10 4 0 6 5 11 11 11 6 0 24 9 40 21 16 11 29 17 29 14 0 -4 7 1 16 9 8
9 22 16 30 16 8 0 14 4 14 10 0 5 11 12 25 16 14 3 25 10 25 14 0 4 8 10 18
13 9 3 40 19 67 36 28 16 86 50 130 75 44 24 89 51 100 60 18 13 32 15 23 3z
m439 -38 c48 -28 104 -60 123 -71 19 -11 171 -99 337 -195 l303 -176 -1 -488
c0 -269 -4 -489 -9 -489 -4 0 -144 79 -310 175 -166 96 -306 175 -311 175 -5
0 -9 4 -9 9 0 5 -6 11 -12 13 -7 2 -57 28 -111 58 l-97 55 1 493 c0 270 2 492
4 492 2 0 43 -23 92 -51z m-3225 -878 c265 -154 259 -147 188 -187 -19 -10
-38 -23 -42 -29 -4 -5 -8 -7 -8 -3 0 4 -16 -3 -35 -17 -20 -13 -49 -30 -65
-37 -17 -7 -30 -16 -30 -20 0 -5 -6 -8 -14 -8 -7 0 -19 -7 -26 -15 -7 -8 -16
-12 -21 -9 -5 3 -9 0 -9 -6 0 -6 -4 -8 -10 -5 -5 3 -10 3 -10 -2 0 -4 -15 -14
-32 -22 -18 -8 -35 -17 -38 -21 -4 -5 -200 -119 -257 -149 l-23 -12 0 395 0
395 93 -53 c50 -28 203 -116 339 -195z m-765 -151 c0 -214 -2 -390 -4 -390 -3
0 -247 139 -513 294 -25 14 -71 40 -102 58 -32 18 -58 35 -58 39 0 8 206 129
220 129 5 0 10 5 10 10 0 6 6 10 14 10 7 0 19 7 26 15 7 8 16 13 20 10 4 -3
13 2 20 10 7 8 19 15 26 15 8 0 14 5 14 10 0 6 5 10 11 10 6 0 24 9 40 21 16
11 29 17 29 12 0 -4 4 -3 8 3 6 10 51 36 152 90 19 11 40 25 48 32 38 34 39
25 39 -378z m2375 0 c-1 -210 -2 -384 -5 -386 -4 -4 -655 370 -669 384 -4 4 9
16 30 27 20 11 64 36 97 56 33 20 70 39 83 43 12 4 22 11 22 15 0 4 16 13 35
21 19 8 35 17 35 21 0 4 10 11 23 15 12 3 29 12 37 19 8 7 38 25 65 39 28 15
57 31 65 36 121 74 171 101 178 94 2 -1 4 -174 4 -384z m636 223 c158 -91 309
-179 336 -194 l49 -27 -29 -17 c-16 -10 -46 -29 -66 -42 -21 -12 -40 -23 -42
-23 -2 0 -39 -20 -80 -45 -42 -25 -80 -45 -85 -45 -5 0 -14 -7 -21 -15 -7 -9
-15 -13 -18 -11 -2 3 -10 0 -18 -7 -34 -30 -42 -35 -48 -29 -4 3 -10 2 -14 -4
-4 -6 -50 -35 -102 -65 -52 -29 -97 -56 -100 -59 -10 -12 -59 -29 -63 -22 -3
6 -1 744 2 765 0 4 3 7 6 7 3 0 135 -75 293 -167z m-4198 -909 l0 -396 -22 14
c-13 8 -166 97 -340 198 -175 101 -318 187 -318 193 0 5 9 11 20 14 11 3 20 9
20 14 0 5 5 9 11 9 6 0 24 9 40 21 16 11 29 17 29 12 0 -4 4 -3 8 3 4 6 32 24
62 41 30 16 74 42 97 56 24 15 47 27 52 27 5 0 14 7 21 15 7 8 16 13 20 10 5
-3 10 -2 12 3 3 7 86 57 203 122 22 12 44 26 50 31 34 32 35 16 35 -387z m845
103 c66 -39 130 -75 142 -81 30 -15 26 -24 -27 -53 -25 -14 -57 -34 -71 -44
-14 -10 -29 -16 -33 -12 -3 3 -6 1 -6 -6 0 -7 -4 -10 -9 -7 -5 4 -11 2 -13 -2
-4 -10 -125 -82 -139 -82 -5 0 -9 -4 -9 -10 0 -5 -4 -10 -9 -10 -6 0 -60 -29
-122 -65 -61 -36 -114 -65 -116 -65 -3 0 -19 -10 -36 -22 -66 -47 -63 -68 -61
360 1 213 2 388 3 389 1 2 265 -149 506 -290z m2228 84 c258 -149 315 -186
306 -197 -6 -8 -15 -12 -19 -9 -5 3 -11 1 -15 -4 -3 -5 -47 -33 -98 -62 -50
-29 -94 -56 -97 -60 -3 -4 -17 -10 -32 -14 -15 -4 -29 -13 -32 -21 -3 -8 -13
-14 -22 -14 -10 0 -25 -6 -33 -13 -9 -8 -70 -44 -136 -82 -66 -37 -135 -77
-153 -87 l-32 -20 0 397 1 397 22 -14 c12 -8 165 -97 340 -197z m1678 192 c3
-64 0 -765 -3 -769 -6 -5 -671 381 -675 392 -2 5 20 22 49 37 29 16 74 40 99
55 124 72 142 82 150 82 5 0 9 4 9 9 0 5 12 14 28 20 15 6 41 19 57 28 17 10
59 35 95 56 36 21 72 43 80 48 8 5 23 12 33 15 9 4 17 11 17 16 0 5 4 7 9 4 5
-3 14 1 21 9 17 20 30 19 31 -2z m677 -182 c182 -106 332 -196 332 -200 0 -4
-24 -21 -52 -36 -29 -16 -56 -33 -59 -38 -3 -5 -10 -9 -15 -9 -17 -1 -39 -12
-58 -30 -11 -10 -23 -18 -28 -18 -4 0 -54 -27 -110 -61 -56 -33 -107 -61 -113
-62 -5 -1 -13 -6 -17 -12 -4 -5 -11 -10 -15 -10 -8 -1 -67 -36 -88 -52 -13 -9
-111 -63 -117 -63 -2 0 -3 177 -3 394 0 217 2 393 5 391 3 -1 155 -89 338
-194z m-3057 -95 c-6 -14 -5 -71 2 -89 3 -9 2 -19 -3 -22 -7 -4 -7 -13 0 -24
5 -10 6 -21 3 -25 -4 -3 -6 -25 -5 -49 3 -56 3 -47 1 -173 l-2 -111 -186 107
c-102 59 -205 118 -227 131 -214 123 -264 154 -252 158 7 2 15 7 18 11 3 4 48
31 100 60 52 29 107 61 121 71 14 10 29 16 33 12 3 -3 6 -1 6 6 0 7 4 10 9 7
5 -4 11 -2 13 2 4 10 195 122 209 122 5 0 9 5 9 11 0 5 4 8 9 5 5 -3 14 1 21
9 7 8 19 15 26 15 8 0 14 4 14 9 0 4 17 15 38 23 l37 14 5 -136 c3 -74 3 -139
1 -144z m-1190 -453 c2 -270 -1 -716 -5 -720 -3 -3 -11 -1 -18 5 -7 5 -29 19
-48 30 -19 11 -145 84 -280 162 -135 79 -264 154 -288 168 l-43 24 38 24 c21
13 44 24 51 24 6 0 12 5 12 10 0 6 6 10 14 10 7 0 19 7 26 15 7 8 16 13 20 10
5 -3 10 -1 12 3 1 5 28 22 58 39 30 16 99 55 152 87 54 31 102 56 108 56 5 0
10 5 10 11 0 5 5 7 10 4 6 -3 10 -2 10 3 0 6 24 22 53 37 28 15 61 34 72 41
31 22 35 17 36 -43z m685 -135 c329 -190 333 -193 311 -210 -12 -9 -46 -29
-74 -44 -29 -14 -53 -31 -53 -37 0 -6 -3 -8 -6 -5 -3 4 -38 -13 -77 -36 -40
-24 -92 -54 -117 -68 -25 -14 -104 -60 -177 -102 -73 -42 -136 -76 -140 -76
-5 0 -8 173 -8 385 0 212 2 385 4 385 2 0 154 -87 337 -192z m1693 -200 c-1
-216 -5 -388 -10 -386 -19 7 -668 383 -669 388 0 3 17 14 38 25 20 11 39 22
42 25 3 3 23 14 45 25 22 11 42 23 45 26 3 3 24 16 47 28 23 11 45 25 48 31 4
6 11 8 16 5 5 -4 9 -2 9 4 0 5 15 15 34 21 19 6 36 15 38 19 2 4 15 14 30 22
66 35 248 142 253 148 2 4 11 8 20 8 14 0 15 -42 14 -389z m506 299 c66 -38
138 -80 160 -92 121 -69 341 -198 348 -204 5 -5 -58 -46 -138 -92 -80 -46
-160 -92 -178 -102 -18 -10 -68 -40 -112 -65 -99 -58 -129 -75 -182 -102 -24
-12 -43 -26 -43 -32 0 -5 -4 -6 -10 -3 -6 4 -10 147 -10 396 l0 390 23 -12
c12 -7 76 -43 142 -82z m-3398 -778 c180 -104 332 -194 337 -199 5 -5 -10 -19
-34 -32 -42 -23 -61 -34 -90 -53 -8 -5 -18 -10 -22 -10 -4 0 -16 -8 -28 -17
-11 -10 -20 -16 -20 -13 0 3 -25 -11 -55 -30 -30 -20 -55 -33 -55 -30 0 2 -9
-3 -20 -13 -12 -9 -24 -17 -28 -17 -4 0 -20 -9 -37 -20 -16 -12 -48 -30 -70
-40 -22 -11 -48 -28 -59 -37 -10 -10 -23 -15 -28 -12 -4 3 -8 0 -8 -6 0 -6 -4
-9 -9 -6 -5 4 -11 2 -13 -2 -1 -5 -24 -21 -50 -35 l-48 -27 0 395 c0 217 2
395 4 395 2 0 152 -86 333 -191z m2333 21 c135 -78 265 -154 290 -168 103 -58
106 -60 84 -68 -10 -4 -21 -11 -24 -14 -6 -9 -94 -54 -99 -51 -2 2 -7 -2 -10
-7 -7 -11 -180 -112 -192 -112 -5 0 -9 -4 -9 -10 0 -5 -4 -10 -9 -10 -12 0
-154 -81 -162 -93 -3 -5 -9 -8 -13 -8 -8 2 -95 -48 -118 -66 -13 -12 -18 -12
-24 -1 -5 7 -9 185 -9 394 l0 382 25 -13 c14 -7 135 -77 270 -155z m-3003
-326 l-1 -486 -39 -25 c-21 -13 -46 -27 -55 -31 -9 -3 -26 -14 -36 -24 -10 -9
-23 -15 -28 -12 -4 3 -8 0 -8 -5 0 -6 -4 -11 -9 -11 -5 0 -42 -19 -83 -43 -40
-24 -93 -55 -118 -69 -25 -14 -72 -40 -105 -58 -33 -19 -62 -36 -65 -39 -3 -4
-23 -16 -45 -28 -84 -45 -120 -66 -125 -72 -5 -6 -125 -71 -132 -71 -2 0 -3
220 -3 490 l0 490 69 40 c37 22 72 40 77 40 5 0 9 4 9 9 0 5 12 14 28 20 27
10 94 48 142 79 14 9 27 17 30 17 3 0 16 8 30 16 14 9 43 26 65 39 22 12 82
47 132 76 51 30 97 54 103 54 5 0 10 3 10 8 0 4 15 14 33 21 17 8 38 21 45 28
7 7 20 13 28 13 8 0 14 5 14 10 0 6 9 10 19 10 19 0 19 -13 18 -486z m2375 97
c0 -210 -2 -384 -4 -386 -6 -6 -667 380 -668 391 0 5 19 20 43 32 46 23 101
55 220 126 43 25 80 46 82 46 2 0 33 18 69 40 36 22 70 40 76 40 5 0 10 5 10
10 0 6 5 10 11 10 5 0 40 18 77 40 36 22 70 39 76 37 5 -2 9 -155 8 -386z
m2374 374 c-3 -8 -1 -15 5 -15 6 0 6 -7 -1 -19 -7 -14 -7 -22 0 -26 8 -5 8
-11 1 -19 -6 -7 -8 -16 -5 -19 8 -8 9 -106 1 -114 -4 -3 -2 -14 4 -24 5 -11 6
-19 1 -19 -4 0 -8 -9 -8 -20 0 -11 4 -20 8 -20 5 0 5 -8 1 -17 -5 -10 -8 -116
-7 -235 0 -120 0 -218 -2 -218 -13 0 -667 388 -666 395 0 6 8 12 17 13 9 2 24
11 33 19 25 22 132 83 132 75 0 -4 4 -2 8 3 8 11 52 38 97 61 17 8 42 22 57
32 23 15 136 80 260 150 20 11 39 18 42 15 3 -4 6 -1 6 5 0 7 5 12 11 12 6 0
9 -7 5 -15z m406 -16 c29 -18 73 -43 98 -57 126 -71 667 -385 677 -394 10 -8
13 -122 12 -499 0 -269 -2 -489 -4 -489 -3 0 -404 230 -435 250 -50 31 -140
80 -148 80 -6 0 -12 4 -14 8 -1 4 -61 41 -131 82 l-128 73 2 489 c1 268 5 488
10 488 4 0 32 -14 61 -31z m-3966 -1049 l0 -389 -40 24 c-23 13 -108 63 -191
110 -82 48 -166 96 -185 107 -19 11 -64 37 -100 58 -36 21 -85 49 -110 63 -55
31 -60 44 -21 58 17 6 31 15 31 21 0 5 5 6 10 3 6 -3 10 -1 10 5 0 6 5 8 10 5
6 -3 10 -1 10 4 0 6 7 11 15 11 8 0 15 5 15 11 0 5 4 8 9 4 5 -3 16 0 23 7 19
18 69 48 91 55 9 3 17 9 17 14 0 5 9 9 19 9 11 0 21 4 23 9 4 10 145 91 159
91 5 0 9 4 9 8 0 5 19 17 43 28 23 10 44 21 47 24 11 14 95 59 100 54 3 -3 5
-180 6 -394z m584 260 c102 -59 239 -138 304 -176 65 -38 117 -73 115 -79 -2
-5 -7 -9 -11 -7 -5 1 -8 -2 -8 -7 0 -5 -16 -15 -35 -22 -19 -7 -33 -15 -30
-17 2 -3 -19 -16 -48 -31 -29 -14 -54 -29 -57 -32 -3 -4 -25 -17 -50 -29 -25
-12 -47 -25 -50 -29 -3 -3 -21 -14 -40 -24 -71 -38 -95 -52 -101 -60 -3 -5 -9
-8 -13 -8 -3 1 -16 -5 -29 -12 -86 -54 -181 -107 -188 -107 -5 0 -9 174 -9
390 l0 391 33 -17 c17 -9 115 -65 217 -124z m1791 -256 c-1 -213 -2 -388 -3
-389 -2 -2 -142 79 -313 178 -170 99 -320 185 -332 191 -34 17 -28 34 20 57
71 34 87 43 87 51 0 5 9 8 19 8 11 0 21 4 23 8 3 7 34 26 131 81 94 53 210
120 227 131 8 6 24 14 35 19 11 6 38 21 60 35 22 13 41 23 43 21 2 -1 3 -177
3 -391z m659 210 c140 -81 276 -159 302 -173 26 -14 48 -30 48 -36 0 -5 -35
-29 -78 -53 -76 -41 -96 -53 -237 -135 -38 -22 -72 -40 -74 -38 -2 1 -7 -1
-10 -6 -8 -12 -106 -68 -107 -62 -1 2 -10 -3 -20 -12 -23 -20 -128 -79 -140
-79 -7 0 -11 697 -5 768 1 10 9 9 34 -6 17 -11 147 -87 287 -168z m-3622 -648
c227 -131 412 -241 412 -245 0 -3 -55 -37 -123 -75 -67 -38 -125 -74 -129 -80
-4 -6 -8 -7 -8 -2 0 5 -8 2 -17 -6 -10 -8 -70 -43 -133 -78 -63 -35 -128 -73
-145 -84 -16 -12 -32 -21 -35 -21 -9 -1 -104 -58 -122 -73 -10 -8 -18 -12 -18
-9 0 4 -25 -9 -56 -29 l-55 -35 -337 194 c-185 107 -357 206 -382 221 -25 15
-64 36 -87 48 -24 12 -43 27 -43 33 0 10 128 86 158 93 6 2 12 7 12 11 0 4 16
13 35 21 19 8 35 17 35 22 0 4 5 8 11 8 5 0 26 11 46 25 20 13 40 22 45 19 4
-3 8 -1 8 3 0 5 29 25 65 44 36 18 65 37 65 42 0 4 9 7 20 7 11 0 20 3 20 8 0
4 17 16 37 27 21 11 66 37 100 58 35 20 67 37 73 37 5 0 10 5 10 10 0 6 6 10
13 11 6 0 28 11 47 23 19 13 42 21 51 17 8 -3 200 -113 427 -245z m4552 111
c205 -119 385 -223 515 -299 28 -16 60 -34 73 -40 27 -14 29 -38 2 -38 -11 0
-20 -4 -20 -8 0 -5 -18 -17 -40 -27 -22 -10 -40 -21 -40 -24 0 -4 -12 -12 -27
-18 -27 -11 -65 -33 -180 -101 -29 -17 -53 -28 -53 -24 0 4 -4 2 -8 -4 -6 -10
-73 -51 -182 -112 -25 -14 -58 -34 -75 -44 -16 -10 -37 -21 -45 -24 -8 -4 -23
-14 -32 -22 -10 -8 -18 -12 -18 -8 0 4 -10 -2 -22 -13 -11 -11 -24 -18 -28
-16 -4 2 -16 -4 -27 -14 -20 -19 -24 -17 -242 110 -123 71 -227 129 -232 129
-5 0 -9 5 -9 10 0 6 -4 10 -9 10 -8 0 -369 206 -383 219 -4 3 23 22 60 41 37
19 69 38 72 41 5 6 187 111 280 162 30 16 60 33 65 38 23 17 187 109 196 109
5 0 17 7 27 16 26 24 125 80 142 81 8 0 116 -58 240 -130z m-2778 -78 c2 -61
1 -113 -1 -115 -7 -6 -5 -69 2 -87 4 -10 3 -17 -1 -17 -9 0 -7 -95 3 -109 3
-6 2 -11 -4 -11 -6 0 -6 -11 -1 -30 5 -16 6 -30 2 -30 -4 0 -6 -61 -5 -135 l2
-135 -22 12 c-12 6 -92 52 -177 101 -85 50 -173 100 -195 112 -74 41 -270 157
-278 165 -5 4 22 25 60 46 37 20 107 61 156 91 48 29 91 53 95 53 4 0 15 7 25
15 9 8 24 15 32 15 8 0 15 4 15 8 0 9 37 29 54 30 5 0 12 4 15 9 3 5 26 20 51
34 25 13 51 30 58 37 7 6 19 12 25 12 7 0 23 9 37 20 45 35 49 28 52 -91z
m506 20 c86 -50 175 -102 197 -114 226 -128 311 -182 307 -193 -2 -6 -10 -12
-18 -12 -14 0 -23 -6 -57 -36 -7 -6 -18 -9 -25 -6 -6 2 -12 -1 -12 -7 0 -6 -7
-11 -15 -11 -8 0 -15 -4 -15 -10 0 -5 -7 -10 -15 -10 -8 0 -15 -5 -15 -12 0
-6 -3 -9 -6 -5 -3 3 -39 -14 -79 -39 -40 -24 -77 -44 -83 -44 -6 0 -12 -3 -14
-8 -4 -10 -281 -167 -290 -164 -5 1 -8 -2 -8 -8 0 -5 -7 -10 -16 -10 -13 0
-15 43 -12 390 2 214 7 390 11 390 5 0 79 -41 165 -91z m-1023 -780 c182 -105
333 -194 338 -198 4 -4 -10 -16 -30 -28 -21 -11 -126 -71 -233 -133 -107 -62
-202 -115 -210 -118 -8 -3 -24 -14 -34 -24 -10 -9 -23 -15 -27 -12 -4 2 -10 0
-14 -5 -7 -12 -109 -71 -121 -71 -5 0 -9 172 -9 390 0 214 2 390 5 390 3 0
154 -86 335 -191z m1705 -210 l-1 -389 -22 12 c-26 13 -256 144 -277 158 -8 5
-62 36 -120 70 -58 33 -139 80 -180 104 -41 24 -75 47 -77 52 -1 5 12 16 30
25 72 36 122 64 125 72 2 4 7 7 12 7 8 0 60 29 140 79 14 9 28 14 33 13 4 -1
7 3 7 8 0 6 6 10 13 10 6 0 32 14 56 30 24 16 48 27 54 23 5 -3 7 -1 3 5 -3 6
4 14 16 18 13 4 50 24 84 45 34 22 66 39 73 39 6 0 11 5 11 11 0 5 5 7 10 4 7
-4 10 -140 10 -396z m-746 -346 c138 -80 271 -157 296 -171 25 -14 74 -42 109
-64 34 -21 65 -38 67 -38 2 0 27 -14 56 -32 l52 -32 -32 -13 c-18 -7 -32 -18
-32 -25 0 -6 -3 -9 -6 -6 -3 4 -39 -14 -80 -38 -41 -24 -79 -44 -84 -44 -6 0
-10 -5 -10 -12 0 -6 -3 -9 -6 -5 -3 3 -14 -2 -25 -11 -11 -9 -23 -17 -27 -17
-11 -1 -107 -58 -110 -67 -2 -4 -12 -8 -22 -8 -10 0 -20 -4 -22 -8 -3 -7 -126
-80 -153 -91 -5 -2 -12 -7 -15 -10 -3 -3 -20 -14 -38 -23 -81 -44 -97 -54
-110 -65 -7 -7 -20 -13 -28 -13 -8 0 -14 -4 -14 -9 0 -27 -60 -17 -125 22
-107 64 -148 87 -156 87 -5 0 -9 4 -9 9 0 5 -6 11 -13 13 -29 7 -586 334 -584
342 2 5 16 16 33 25 16 9 56 32 89 52 33 19 67 38 75 42 8 4 31 17 50 28 137
82 220 129 229 129 6 0 11 4 11 8 0 5 16 14 35 22 19 8 35 17 35 21 0 3 15 13
33 20 17 7 37 17 42 22 26 22 175 104 180 99 3 -3 5 0 5 7 0 25 53 0 304 -146z"/>
</g>
</svg>
